<svg preserveAspectRatio="none" width="100%" height="100%" overflow="visible" style="display: block;" viewBox="0 0 108 108" fill="none" xmlns="http://www.w3.org/2000/svg">
<g id="Zinier Symbol">
<path id="Vector" d="M53.9992 89.256C59.1752 89.256 63.3716 93.4523 63.3716 98.6276C63.3716 103.804 59.1751 108 53.9992 108C48.8235 107.999 44.628 103.804 44.6279 98.6276C44.6279 93.4523 48.8234 89.256 53.9992 89.256ZM15.8165 78.9298C19.4768 75.2695 25.41 75.2695 29.0693 78.9298C32.7297 82.5893 32.7297 88.5241 29.0693 92.1837C25.41 95.8432 19.4767 95.8432 15.8165 92.1837C12.1561 88.5241 12.1561 82.5893 15.8165 78.9298ZM78.9291 78.9298C82.5893 75.2695 88.5229 75.2695 92.1839 78.9298C95.8433 82.5893 95.8433 88.5241 92.1839 92.1837C88.5229 95.844 82.5893 95.844 78.9291 92.1837C75.2697 88.5241 75.2697 82.5893 78.9291 78.9298ZM9.37211 44.6285C14.5478 44.6286 18.7434 48.8245 18.7434 54.0002C18.7434 59.176 14.5479 63.3716 9.37211 63.3716C4.19616 63.3716 0 59.1761 0 54.0002C0 48.8244 4.19623 44.6285 9.37211 44.6285ZM98.6276 44.6285C103.804 44.6285 108 48.8244 108 54.0002C108 59.1761 103.804 63.3716 98.6276 63.3716C93.4507 63.3716 89.2561 59.1761 89.2561 54.0002C89.2561 48.8244 93.4515 44.6285 98.6276 44.6285ZM50.4164 0.71554C55.1985 -1.26463 60.6802 1.00602 62.6607 5.78799C65.7846 13.33 74.4309 16.911 81.9728 13.7879C86.7555 11.8065 92.2367 14.0774 94.2178 18.8596C96.1988 23.6409 93.9269 29.1227 89.1457 31.1042C84.3638 33.0848 78.881 30.8137 76.9007 26.0325C73.7766 18.4905 65.1303 14.9095 57.5883 18.0334C52.8061 20.0137 47.3245 17.7429 45.3438 12.9609C43.3633 8.17953 45.6341 2.6961 50.4164 0.71554ZM15.8165 15.8169C19.4767 12.1569 25.41 12.1569 29.0693 15.8169C32.7297 19.4764 32.7297 25.4103 29.0693 29.0706C25.4099 32.7299 19.4768 32.7299 15.8165 29.0706C12.1561 25.4103 12.1561 19.4764 15.8165 15.8169Z" fill="var(--fill-0, black)" fill-opacity="0.9"/>
</g>
</svg>
