<svg preserveAspectRatio="none" width="100%" height="100%" overflow="visible" style="display: block;" viewBox="0 0 65 65" fill="none" xmlns="http://www.w3.org/2000/svg">
<g id="Play_circle_ic">
<path id="Vector" d="M32.5 64.1667C49.989 64.1667 64.1667 49.989 64.1667 32.5C64.1667 15.011 49.989 0.833333 32.5 0.833333C15.011 0.833333 0.833333 15.011 0.833333 32.5C0.833333 49.989 15.011 64.1667 32.5 64.1667Z" fill="var(--fill-0, white)" fill-opacity="0.75" stroke="var(--stroke-0, #333333)" stroke-width="1.66667" stroke-linecap="round" stroke-linejoin="round"/>
<g id="Vector_2">
<path d="M20.8333 15.7125V49.1417C20.8257 49.8915 21.1071 50.6155 21.6192 51.1632C22.1313 51.711 22.8347 52.0405 23.5833 52.0833C24.2446 52.1052 24.8929 51.896 25.4167 51.4917L25.8333 51.1958L47.3042 35.2958L47.9375 34.825C48.3262 34.5728 48.6456 34.2274 48.8667 33.8202C49.0879 33.4131 49.2037 32.9571 49.2037 32.4938C49.2037 32.0304 49.0879 31.5744 48.8667 31.1673C48.6456 30.7601 48.3262 30.4147 47.9375 30.1625L47.3292 29.7042L25.9208 13.8708C25.0292 13.1417 23.9208 12.6208 22.6333 13.175C22.0966 13.4144 21.6408 13.8045 21.3214 14.2978C21.0019 14.7911 20.8323 15.3664 20.8333 15.9542V16.1792" fill="var(--fill-0, white)"/>
<path d="M20.8333 15.7125V49.1417C20.8257 49.8915 21.1071 50.6155 21.6192 51.1632C22.1313 51.711 22.8347 52.0405 23.5833 52.0833C24.2446 52.1052 24.8929 51.896 25.4167 51.4917L25.8333 51.1958L47.3042 35.2958L47.9375 34.825C48.3262 34.5728 48.6456 34.2274 48.8667 33.8202C49.0879 33.4131 49.2037 32.9571 49.2037 32.4938C49.2037 32.0304 49.0879 31.5744 48.8667 31.1673C48.6456 30.7601 48.3262 30.4147 47.9375 30.1625L47.3292 29.7042L25.9208 13.8708C25.0292 13.1417 23.9208 12.6208 22.6333 13.175C22.0966 13.4144 21.6408 13.8045 21.3214 14.2978C21.0019 14.7911 20.8323 15.3664 20.8333 15.9542V16.1792" stroke="var(--stroke-0, #E60000)" stroke-width="1.66667" stroke-linecap="round" stroke-linejoin="round"/>
</g>
</g>
</svg>
