<svg preserveAspectRatio="none" width="100%" height="100%" overflow="visible" style="display: block;" viewBox="0 0 87 87" fill="none" xmlns="http://www.w3.org/2000/svg">
<g id="Zinier Symbol">
<path id="Vector" d="M43.4994 71.9007C47.6689 71.9007 51.0493 75.281 51.0493 79.45C51.0493 83.6197 47.6688 87 43.4994 87C39.33 86.9994 35.9503 83.6197 35.9502 79.45C35.9502 75.281 39.33 71.9007 43.4994 71.9007ZM12.7411 63.5823C15.6897 60.6337 20.4691 60.6337 23.417 63.5823C26.3656 66.5303 26.3656 71.3111 23.417 74.2591C20.4691 77.207 15.6896 77.207 12.7411 74.2591C9.79239 71.3111 9.79239 66.5303 12.7411 63.5823ZM63.5818 63.5823C66.5302 60.6337 71.3101 60.6337 74.2593 63.5823C77.2071 66.5303 77.2071 71.3111 74.2593 74.2591C71.3101 77.2077 66.5302 77.2077 63.5818 74.2591C60.6339 71.3111 60.6339 66.5303 63.5818 63.5823ZM7.54976 35.9507C11.7191 35.9508 15.0988 39.3308 15.0989 43.5002C15.0989 47.6696 11.7192 51.0493 7.54976 51.0493C3.38024 51.0493 0 47.6696 0 43.5002C0 39.3307 3.3803 35.9507 7.54976 35.9507ZM79.45 35.9507C83.6197 35.9507 87 39.3307 87 43.5002C87 47.6696 83.6197 51.0493 79.45 51.0493C75.2798 51.0493 71.9007 47.6696 71.9007 43.5002C71.9007 39.3307 75.2804 35.9507 79.45 35.9507ZM40.6132 0.576408C44.4654 -1.01873 48.8812 0.810406 50.4767 4.66255C52.9932 10.7381 59.9582 13.6227 66.0336 11.1069C69.8864 9.51079 74.3018 11.3401 75.8977 15.1924C77.4935 19.0441 75.6633 23.4599 71.8118 25.0562C67.9597 26.6516 63.543 24.8222 61.9478 20.9707C59.4312 14.8951 52.4661 12.0104 46.3906 14.5269C42.5382 16.1222 38.1225 14.2929 36.527 10.4408C34.9315 6.58906 36.7608 2.17186 40.6132 0.576408ZM12.7411 12.7414C15.6896 9.79309 20.4691 9.79303 23.417 12.7414C26.3656 15.6893 26.3656 20.4694 23.417 23.418C20.4691 26.3658 15.6897 26.3658 12.7411 23.418C9.79239 20.4694 9.79239 15.6893 12.7411 12.7414Z" fill="var(--fill-0, black)" fill-opacity="0.9"/>
</g>
</svg>
